# AST/ASF file generated using VICON BodyLanguage
# -----------------------------------------------
:version 1.10
:name VICON
:units
  mass 1.0
  length 0.45
  angle deg
:documentation
   .ast/.asf automatically generated from VICON data using
   VICON BodyBuilder and BodyLanguage model FoxedUp or BRILLIANT.MOD
:root
   order TX TY TZ RX RY RZ
   axis XYZ
   position 0 0 0  
   orientation 0 0 0 
:bonedata
  begin
     id 1 
     name lhipjoint
     direction 0.528046 -0.759594 0.379717 
     length 2.39752 
     axis 0 0 0  XYZ
  end
  begin
     id 2 
     name lfemur
     direction 0.34202 -0.939693 0  
     length 7.31175  
     axis 0 0 20  XYZ
    dof rx ry rz
    limits (-160.0 20.0)
           (-70.0 70.0)
           (-60.0 70.0)
  end
  begin
     id 3 
     name ltibia
     direction 0.34202 -0.939693 0   
     length 7.52482   
     axis 0 0 20   XYZ
    dof rx
    limits (-10.0 170.0)
  end
  begin
     id 4 
     name lfoot
     direction 0.0675379 -0.185559 0.980309   
     length 2.00961   
     axis -90 7.62852e-016 20   XYZ
    dof rx rz
    limits (-45.0 90.0)
           (-70.0 20.0)
  end
  begin
     id 5 
     name ltoes
     direction 1.5352e-011 -4.22286e-011 1   
     length 1.01383   
     axis -90 7.62852e-016 20   XYZ
    dof rx
    limits (-90.0 20.0)
  end
  begin
     id 6 
     name rhipjoint
     direction -0.510274 -0.769251 0.384544   
     length 2.36742  
     axis 0 0 0  XYZ 
  end
  begin
     id 7 
     name rfemur
     direction -0.34202 -0.939693 0   
     length 7.45325   
     axis 0 0 -20   XYZ
    dof rx ry rz
    limits (-160.0 20.0)
           (-70.0 70.0)
           (-70.0 60.0)
  end
  begin
     id 8 
     name rtibia
     direction -0.34202 -0.939693 0   
     length 7.49587   
     axis 0 0 -20   XYZ
    dof rx
    limits (-10.0 170.0)
 end
 begin
     id 9 
     name rfoot
     direction -0.106475 -0.292536 0.950308   
     length 2.20898  
     axis -90 -7.62852e-016 -20   XYZ
    dof rx rz
    limits (-45.0 90.0)
           (-20.0 70.0)
  end
  begin
     id 10 
     name rtoes
     direction -1.53597e-011 -4.22023e-011 1   
     length 1.10065   
     axis -90 -7.62852e-016 -20   XYZ
    dof rx
    limits (-90.0 20.0)
  end
  begin
     id 11 
     name lowerback
     direction 0.0260024 0.998026 -0.0571652   
     length 2.11214   
     axis 0 0 0   XYZ
    dof rx ry rz
    limits (-20.0 45.0)
           (-30.0 30.0)
           (-30.0 30.0)
  end
  begin
     id 12 
     name upperback
     direction 0.0216202 0.999542 -0.0211766   
     length 2.11689   
     axis 0 0 0   XYZ
    dof rx ry rz
    limits (-20.0 45.0)
           (-30.0 30.0)
           (-30.0 30.0)
  end
  begin
     id 13 
     name thorax
     direction 0.00883312 0.999944 0.00589057   
     length 2.11821   
     axis 0 0 0   XYZ
    dof rx ry rz
    limits (-20.0 45.0)
           (-30.0 30.0)
           (-30.0 30.0)
  end
  begin
     id 14 
     name lowerneck
     direction -0.059386 0.994433 0.0870401   
     length 1.81176   
     axis 0 0 0   XYZ
    dof rx ry rz
    limits (-20.0 45.0)
           (-30.0 30.0)
           (-30.0 30.0)
  end
  begin
     id 15 
     name upperneck
     direction 0.0506457 0.97328 -0.223967   
     length 1.82382   
     axis 0 0 0   XYZ
    dof rx ry rz
    limits (-20.0 45.0)
           (-30.0 30.0)
           (-30.0 30.0)
  end
  begin
     id 16
     name head
     direction 0.0205902 0.996147 -0.0852487  
     length 1.84805  
     axis 0 0 0   XYZ
    dof rx ry rz
    limits (-20.0 45.0)
           (-30.0 30.0)
           (-30.0 30.0)
  end
  begin
     id 17 
     name lclavicle
     direction 0.949493 0.303881 -0.0782325  
     length 3.60584  
     axis 0 0 0   XYZ
    dof ry rz
    limits (-20.0 10.0)
           (0.0 20.0)
  end
  begin
     id 18 
     name lhumerus
     direction 1 -4.48965e-011 1.48782e-027   
     length 4.95681   
     axis 180 -30 -90   XYZ
    dof rx ry rz
    limits (-60.0 90.0)
           (-90.0 90.0)
           (-90.0 90.0)
  end
  begin
     id 19
     name lradius
     direction 1 -4.48952e-011 2.06528e-027   
     length 3.40915   
     axis 180 -30 -90   XYZ
    dof rx
    limits (-10.0 170.0)
  end
  begin
     id 20
     name lwrist
     direction 1 -4.48964e-011 1.28021e-027   
     length 1.70457   
     axis -1.61767e-015 90 90   XYZ
    dof ry
    limits (-180.0 0.0)
 end
  begin
     id 21 
     name lhand
     direction 1 -4.49094e-011 2.54887e-027   
     length 0.616403   
     axis -1.63363e-015 90 90   XYZ
    dof rx rz
    limits (-90.0 90.0)
           (-45.0 45.0)
  end
  begin
     id 22 
     name lfingers
     direction 1 -4.49002e-011 5.11407e-027   
     length 0.49696   
     axis -3.26723e-015 90 90   XYZ
    dof rx
    limits (0.0 90.0)
  end
  begin
     id 23
     name lthumb
     direction 0.707107 -6.34998e-011 0.707107   
     length 0.713539   
     axis -90 45 -2.25915e-014   XYZ
    dof rx rz
    limits (-45.0 45.0)
           (-45.0 45.0)
  end
  begin
     id 24 
     name rclavicle
     direction -0.937751 0.334612 -0.0930482   
     length 3.46287  
     axis 0 0 0   XYZ 
    dof ry rz
    limits (-10.0 20.0)
           (-20.0 0.0)
  end
  begin
     id 25 
     name rhumerus
     direction -1 -4.48962e-011 3.59972e-027  
     length 5.352   
     axis 180 30 90   XYZ
    dof rx ry rz
    limits (-90.0 60.0)
           (-90.0 90.0)
           (-90.0 90.0)
  end
  begin
     id 26 
     name rradius
     direction -1 -4.48987e-011 -3.76925e-027   
     length 3.43721   
     axis 180 30 90   XYZ
    dof rx
    limits (-10.0 170.0)
  end
  begin
     id 27 
     name rwrist
     direction -1 -4.48943e-011 1.28112e-027   
     length 1.7186   
     axis -1.61767e-015 -90 -90   XYZ
    dof ry
    limits (-180.0 0.0)
  end
  begin
     id 28
     name rhand
     direction -1 -4.49027e-011 2.55483e-027   
     length 0.72009   
     axis -1.63363e-015 -90 -90   XYZ
    dof rx rz
    limits (-90.0 90.0)
           (-45.0 45.0)
  end
  begin
     id 29
     name rfingers
     direction -1 -4.48827e-011 5.14506e-027   
     length 0.580555   
     axis -3.26723e-015 -90 -90   XYZ
    dof rx
    limits (0.0 90.0)
  end
  begin
     id 30
     name rthumb
     direction -0.707107 -6.34936e-011 0.707107   
     length 0.833564   
     axis -90 -45 2.25915e-014   XYZ
    dof rx rz
    limits (-45.0 45.0)
           (-45.0 45.0)
  end
:hierarchy
  begin
    root lhipjoint rhipjoint lowerback
    lhipjoint lfemur
    lfemur ltibia
    ltibia lfoot
    lfoot ltoes
    rhipjoint rfemur
    rfemur rtibia
    rtibia rfoot
    rfoot rtoes
    lowerback upperback
    upperback thorax
    thorax lowerneck lclavicle rclavicle
    lowerneck upperneck
    upperneck head
    lclavicle lhumerus
    lhumerus lradius
    lradius lwrist
    lwrist lhand lthumb
    lhand lfingers
    rclavicle rhumerus
    rhumerus rradius
    rradius rwrist
    rwrist rhand rthumb
    rhand rfingers
  end

#!OML:ASF H:\Terrain\Patient Classification 1\Terrain2\Thursday\justin.ASF
:FULLY-SPECIFIED
:DEGREES
405
root 19.5998 23.8048 14.2411 1.0485 -0.076408 -0.028239
lowerback 3.95124 -0.662425 0.908856
upperback 0.638499 -0.790043 3.2104
thorax -1.52665 -0.393289 2.83185
lowerneck -11.2289 -2.91405 -9.86191
upperneck 40.1249 -3.57407 4.68007
head 16.6616 -2.36222 3.25744
rclavicle 1.98785e-016 -1.90833e-014
rhumerus -34.2422 -26.6547 -68.1809
rradius 16.4794
rwrist 4.54954
rhand -18.9375 11.6488
rfingers 7.12502
rthumb 7.36544 -18.203
lclavicle 1.98785e-016 -1.90833e-014
lhumerus -33.8647 6.92951 88.1214
lradius 26.4503
lwrist 0.815285
lhand -16.0319 22.5044
lfingers 7.12502
lthumb 10.1694 52.2386
rfemur -29.167 -14.3344 26.7493
rtibia 36.3304
rfoot -9.55211 -7.47445
rtoes 28.9968
lfemur 8.218 -0.117472 -18.7526
ltibia 32.0745
lfoot -0.435156 -13.7583
ltoes 10.4344
406
root 19.5778 23.8264 14.359 1.04488 -0.0514413 -0.375672
lowerback 3.86657 -0.787523 1.16315
upperback 0.650925 -0.945216 3.46401
thorax -1.45977 -0.471999 2.95737
lowerneck -11.4475 -2.88526 -9.97088
upperneck 40.2261 -3.51559 4.76079
head 16.7715 -2.34596 3.32673
rclavicle -2.28602e-015 1.03368e-014
rhumerus -34.2968 -26.5384 -67.9055
rradius 16.3675
rwrist 4.46884
rhand -18.8846 11.2592
rfingers 7.12502
rthumb 7.41653 -18.5908
lclavicle -2.28602e-015 1.03368e-014
lhumerus -34.1101 6.95143 88.3626
lradius 26.0246
lwrist 0.884475
lhand -15.8602 21.8837
lfingers 7.12502
lthumb 10.335 51.6097
rfemur -28.6031 -14.4767 27.1445
rtibia 36.2176
rfoot -9.85291 -7.36757
rtoes 28.5586
lfemur 7.50764 0.0629951 -17.9531
ltibia 33.5587
lfoot 1.64152 -14.3703
ltoes 11.2104
407
root 19.5535 23.8481 14.4701 1.08465 -0.0494221 -0.657502
lowerback 3.78774 -0.79604 1.465
upperback 0.648223 -0.944943 3.5879
thorax -1.42125 -0.473123 2.91428
lowerneck -11.3628 -2.95567 -10.2078
upperneck 40.1436 -3.68848 5.06663
head 16.7397 -2.41236 3.47643
rclavicle -8.94531e-016 -6.36111e-015
rhumerus -34.4252 -26.3329 -67.8547
rradius 16.5088
rwrist 4.05295
rhand -18.898 10.9129
rfingers 7.12502
rthumb 7.40356 -18.9375
lclavicle -8.94531e-016 -6.36111e-015
lhumerus -34.3878 6.44234 88.6423
lradius 25.9243
lwrist 0.586499
lhand -15.1856 22.0153
lfingers 7.12502
lthumb 10.9857 51.7078
rfemur -28.089 -14.4329 27.487
rtibia 35.9703
rfoot -10.0583 -7.44498
rtoes 27.809
lfemur 6.60372 0.216187 -17.2135
ltibia 35.186
lfoot 3.79677 -14.9139
ltoes 10.8157
408
root 19.528 23.8578 14.5798 1.09037 -0.226451 -0.897288
lowerback 3.75572 -0.771957 1.72395
upperback 0.647454 -0.90258 3.65944
thorax -1.40867 -0.453021 2.84002
lowerneck -11.1811 -2.99632 -10.3495
upperneck 39.973 -3.8598 5.38731
head 16.6321 -2.46125 3.61237
rclavicle -9.93923e-017 7.95139e-015
rhumerus -34.56 -26.196 -67.9015
rradius 16.7433
rwrist 3.84383
rhand -18.7577 10.6275
rfingers 7.12502
rthumb 7.53898 -19.2182
lclavicle -9.93923e-017 7.95139e-015
lhumerus -34.8129 5.81462 88.8669
lradius 26.0891
lwrist 0.085915
lhand -14.4026 22.5319
lfingers 7.12502
lthumb 11.7408 52.1829
rfemur -27.5596 -14.1786 27.7983
rtibia 35.6546
rfoot -10.1254 -7.63371
rtoes 26.9692
lfemur 5.69418 0.395845 -16.5723
ltibia 36.8984
lfoot 5.90257 -15.4239
ltoes 10.1189
409
root 19.5033 23.8632 14.6933 1.02709 -0.269735 -1.44663
lowerback 3.7351 -0.91917 2.11044
upperback 0.642454 -1.07987 3.94604
thorax -1.39743 -0.54301 2.92789
lowerneck -11.047 -2.92327 -10.2853
upperneck 39.8719 -3.75222 5.29776
head 16.5251 -2.41945 3.57376
rclavicle -2.68359e-015 -2.54444e-014
rhumerus -34.484 -25.7019 -67.9901
rradius 16.8254
rwrist 3.75399
rhand -18.6687 10.7613
rfingers 7.12502
rthumb 7.62494 -19.0813
lclavicle -2.68359e-015 -2.54444e-014
lhumerus -35.1774 5.54585 89.1668
lradius 25.9331
lwrist -0.0796686
lhand -14.8486 21.7974
lfingers 7.12502
lthumb 11.3108 51.4724
rfemur -26.8902 -14.1587 28.3973
rtibia 35.3377
rfoot -10.3584 -7.67931
rtoes 26.9784
lfemur 4.87811 0.562463 -15.5654
ltibia 38.6472
lfoot 7.53061 -16.1457
ltoes 8.54462
410
root 19.4793 23.8731 14.802 0.951407 -0.247917 -1.85453
lowerback 3.80862 -1.00773 2.4107
upperback 0.579743 -1.17595 4.15163
thorax -1.50152 -0.592145 2.97964
lowerneck -10.8897 -2.95202 -10.2378
upperneck 39.8768 -3.80647 5.22176
head 16.4916 -2.44808 3.52152
rclavicle -1.28216e-014 -1.27222e-014
rhumerus -34.5981 -24.9611 -68.1779
rradius 17.1736
rwrist 3.11663
rhand -18.5308 11.1711
rfingers 7.12502
rthumb 7.75804 -18.6666
lclavicle -1.28216e-014 -1.27222e-014
lhumerus -35.5618 5.31842 89.4035
lradius 25.7494
lwrist -0.685713
lhand -15.2103 20.9515
lfingers 7.12502
lthumb 10.9619 50.6453
rfemur -26.2001 -14.4492 28.8535
rtibia 34.9982
rfoot -10.629 -7.42536
rtoes 27.232
lfemur 4.04396 0.606593 -14.7378
ltibia 40.4513
lfoot 8.61888 -16.8709
ltoes 7.2076
411
root 19.4623 23.8875 14.9068 0.884725 -0.301009 -2.15313
lowerback 3.85953 -0.999735 2.86599
upperback 0.597163 -1.14406 4.16921
thorax -1.5218 -0.578423 2.74157
lowerneck -10.9898 -3.07119 -10.2289
upperneck 39.9739 -4.09119 5.47326
head 16.6088 -2.53475 3.58941
rclavicle -1.65985e-014 4.45278e-014
rhumerus -34.6689 -24.0526 -68.739
rradius 17.9024
rwrist 1.92591
rhand -18.168 11.2234
rfingers 7.12502
rthumb 8.10816 -18.6011
lclavicle -1.65985e-014 4.45278e-014
lhumerus -35.7935 4.60645 89.5969
lradius 25.6563
lwrist -1.39735
lhand -15.0461 20.6235
lfingers 7.12502
lthumb 11.1203 50.3088
rfemur -25.527 -14.7718 29.1704
rtibia 34.6365
rfoot -10.7571 -7.09848
rtoes 26.5053
lfemur 3.1614 0.480893 -14.1401
ltibia 42.28
lfoot 9.54127 -17.4298
ltoes 7.06152
412
root 19.4494 23.9001 15.0098 0.799563 -0.42697 -2.923
lowerback 3.85248 -1.04884 3.81748
upperback 0.714397 -1.1745 4.32814
thorax -1.41208 -0.596771 2.37313
lowerneck -11.3084 -3.14397 -10.2102
upperneck 40.1367 -4.24647 5.62302
head 16.801 -2.57894 3.63337
rclavicle -1.88845e-015 3.02153e-014
rhumerus -34.3071 -22.9135 -69.5491
rradius 18.3872
rwrist 0.674893
rhand -18.0773 11.1574
rfingers 7.12502
rthumb 8.19569 -18.6636
lclavicle -1.88845e-015 3.02153e-014
lhumerus -35.8336 3.78955 89.8791
lradius 25.6
lwrist -1.74413
lhand -14.9832 20.3138
lfingers 7.12502
lthumb 11.181 49.9958
rfemur -24.768 -14.851 29.9426
rtibia 34.2235
rfoot -10.9042 -6.96002
rtoes 25.5269
lfemur 2.28222 0.412377 -13.0151
ltibia 44.0926
lfoot 10.3664 -18.2323
ltoes 5.7996
413
root 19.4288 23.9091 15.1079 0.732226 -0.788201 -3.54224
lowerback 3.91998 -1.03911 4.4199
upperback 0.776563 -1.13296 4.51967
thorax -1.39405 -0.57783 2.23362
lowerneck -11.4193 -3.205 -10.1436
upperneck 40.2412 -4.32035 5.52374
head 16.8915 -2.61565 3.56617
rclavicle -1.75924e-014 -5.88403e-014
rhumerus -33.9921 -21.9324 -70.1846
rradius 18.7765
rwrist -0.304576
rhand -18.1136 11.5152
rfingers 7.12502
rthumb 8.16066 -18.3072
lclavicle -1.75924e-014 -5.88403e-014
lhumerus -35.8928 3.40206 90.0959
lradius 25.573
lwrist -2.4259
lhand -14.3961 20.4435
lfingers 7.12502
lthumb 11.7471 50.0941
rfemur -24.0632 -14.8306 30.6072
rtibia 33.7842
rfoot -11.016 -6.65664
rtoes 25.3284
lfemur 1.38653 0.583255 -12.0178
ltibia 45.8718
lfoot 10.6928 -19.4127
ltoes 2.87017
414
root 19.4089 23.9235 15.2029 0.687844 -1.195 -3.9118
lowerback 4.05907 -1.03825 4.65747
upperback 0.77318 -1.10819 4.70505
thorax -1.47643 -0.567334 2.29522
lowerneck -11.281 -3.1836 -10.066
upperneck 40.2039 -4.28061 5.39324
head 16.8237 -2.60726 3.49732
rclavicle -5.46658e-015 -1.27222e-014
rhumerus -33.8678 -20.8501 -70.691
rradius 19.485
rwrist -1.2503
rhand -17.9282 11.9122
rfingers 7.12502
rthumb 8.33966 -17.9032
lclavicle -5.46658e-015 -1.27222e-014
lhumerus -35.9449 3.29282 90.3038
lradius 25.4183
lwrist -2.78285
lhand -14.3715 20.4299
lfingers 7.12502
lthumb 11.7709 50.0791
rfemur -23.3935 -14.7545 31.0091
rtibia 33.3406
rfoot -11.0823 -6.3241
rtoes 25.1565
lfemur 0.470081 0.716264 -11.3614
ltibia 47.5352
lfoot 10.6429 -20.4592
ltoes 0.764427
415
root 19.3996 23.9357 15.2979 0.702547 -1.45658 -4.23288
lowerback 4.13299 -1.09105 5.00626
upperback 0.743013 -1.15294 4.85835
thorax -1.55244 -0.592212 2.26461
lowerneck -11.1577 -3.16892 -10.3197
upperneck 40.1587 -4.30136 5.6311
head 16.7865 -2.62638 3.64675
rclavicle 1.86858e-014 -2.22639e-014
rhumerus -33.7675 -19.7526 -71.1364
rradius 20.2609
rwrist -2.10236
rhand -17.6722 12.2416
rfingers 7.12502
rthumb 8.58671 -17.5638
lclavicle 1.86858e-014 -2.22639e-014
lhumerus -36.0689 3.03427 90.6164
lradius 25.3642
lwrist -2.64037
lhand -15.2095 20.1793
lfingers 7.12502
lthumb 10.9627 49.873
rfemur -22.7711 -14.4398 31.2837
rtibia 32.9644
rfoot -11.3353 -6.22361
rtoes 24.9113
lfemur -0.550434 0.630744 -10.8531
ltibia 49.1038
lfoot 10.5451 -21.0465
ltoes 0.619673
416
root 19.3903 23.9518 15.3933 0.687121 -1.78856 -4.18693
lowerback 4.19195 -1.10337 5.06405
upperback 0.744961 -1.16241 4.84517
thorax -1.58485 -0.597774 2.22062
lowerneck -11.2027 -3.24532 -10.3969
upperneck 40.1994 -4.42629 5.68628
head 16.8416 -2.68601 3.66516
rclavicle 5.1684e-015 -4.77083e-015
rhumerus -33.603 -18.8308 -71.606
rradius 20.8876
rwrist -2.72321
rhand -17.6538 12.693
rfingers 7.12502
rthumb 8.60445 -17.1117
lclavicle 5.1684e-015 -4.77083e-015
lhumerus -36.1601 2.31129 91.0255
lradius 25.3121
lwrist -2.2268
lhand -15.7316 20.2767
lfingers 7.12502
lthumb 10.4591 49.9966
rfemur -22.1959 -14.1493 31.142
rtibia 32.6414
rfoot -11.5319 -6.07857
rtoes 25.2712
lfemur -1.49488 0.547536 -10.762
ltibia 50.5505
lfoot 10.5131 -21.323
ltoes 2.27659
417
root 19.38 23.9623 15.4858 0.623437 -2.29381 -4.40133
lowerback 4.25618 -1.09113 5.28868
upperback 0.807117 -1.13427 4.91991
thorax -1.55942 -0.584183 2.17209
lowerneck -11.3136 -3.30088 -10.1161
upperneck 40.2697 -4.4382 5.29633
head 16.888 -2.70205 3.43427
rclavicle 7.95139e-016 -1.59028e-014
rhumerus -33.3497 -17.8009 -72.1555
rradius 21.6006
rwrist -3.54461
rhand -17.692 12.6648
rfingers 7.12502
rthumb 8.56753 -17.1414
lclavicle 7.95139e-016 -1.59028e-014
lhumerus -36.1559 1.79169 91.3161
lradius 25.2492
lwrist -1.76212
lhand -16.1044 20.44
lfingers 7.12502
lthumb 10.0995 50.1777
rfemur -21.6575 -14.4302 31.3763
rtibia 32.4385
rfoot -11.5383 -5.50657
rtoes 25.1261
lfemur -2.28999 0.694181 -10.3116
ltibia 51.8952
lfoot 10.2549 -21.4939
ltoes 3.97943
